<svg xmlns="http://www.w3.org/2000/svg" viewBox="0 0 64 64" id="record-mic"><path d="M46.28 14.28c0-3.82-1.49-7.4-4.19-10.09C39.42 1.49 35.83 0 32 0c-7.88 0-14.29 6.41-14.29 14.28V30.1h28.57V14.28zM22.3 23.14c1.29 0 2.34 1.05 2.34 2.35a2.345 2.345 0 1 1-4.69 0c0-1.3 1.06-2.35 2.35-2.35zm0-5.4c-1.3 0-2.35-1.05-2.35-2.35s1.05-2.35 2.35-2.35c1.29 0 2.34 1.05 2.34 2.35s-1.05 2.35-2.34 2.35zm1.1-10.12c0-1.3 1.05-2.35 2.35-2.35s2.35 1.05 2.35 2.35-1.05 2.35-2.35 2.35a2.36 2.36 0 0 1-2.35-2.35zm16.5 2.34c-1.3 0-2.35-1.05-2.35-2.35s1.05-2.35 2.35-2.35 2.35 1.05 2.35 2.35-1.05 2.35-2.35 2.35zm1.95 8.85c-1.3 0-2.35-1.05-2.35-2.35s1.05-2.35 2.35-2.35 2.35 1.05 2.35 2.35a2.36 2.36 0 0 1-2.35 2.35zm.35 5.08c1.3 0 2.35 1.05 2.35 2.35s-1.05 2.35-2.35 2.35-2.35-1.05-2.35-2.35 1.06-2.35 2.35-2.35zm-9.76-4.13a2.345 2.345 0 1 1 0 4.69c-1.3 0-2.35-1.05-2.35-2.34 0-1.3 1.06-2.35 2.35-2.35zm2.35-7.44c0 1.3-1.05 2.35-2.35 2.35s-2.35-1.05-2.35-2.35 1.05-2.35 2.35-2.35a2.36 2.36 0 0 1 2.35 2.35zm12.49 18.59H16.69v4.73c0 8.44 6.87 15.3 15.31 15.3 8.44 0 15.3-6.86 15.3-15.3V31.5l-.02-.59zM34.41 51.55c-.9.13-1.67.2-2.4.2-.74 0-1.51-.06-2.41-.2l-.7-.1v7.07h6.21v-7.07l-.7.1zM23.21 59.33 21.54 64h20.92l-1.66-4.67z"></path></svg>